<?xml version="1.0" standalone="no"?>
<!DOCTYPE svg PUBLIC "-//W3C//DTD SVG 20010904//EN"
 "http://www.w3.org/TR/2001/REC-SVG-20010904/DTD/svg10.dtd">
<svg version="1.0" xmlns="http://www.w3.org/2000/svg"
 width="2000.000000pt" height="2000.000000pt" viewBox="0 0 2000.000000 2000.000000"
 preserveAspectRatio="xMidYMid meet">
<metadata>
Created by potrace 1.14, written by Peter Selinger 2001-2017
</metadata>
<g transform="translate(0.000000,2000.000000) scale(0.100000,-0.100000)"
fill="#000000" stroke="none">
<path d="M10570 16220 c-25 -5 -56 -11 -70 -14 -14 -3 -36 -7 -50 -10 -49 -11
-155 -48 -217 -76 -321 -146 -568 -424 -678 -765 -9 -27 -22 -74 -30 -105 -7
-30 -20 -80 -28 -110 -33 -119 -209 -778 -224 -835 -8 -33 -26 -98 -40 -145
-13 -47 -27 -96 -29 -110 -3 -14 -25 -97 -49 -185 -24 -88 -48 -178 -54 -200
-5 -22 -30 -116 -56 -210 -110 -406 -118 -448 -117 -623 2 -328 126 -624 362
-863 101 -102 204 -178 320 -234 146 -72 153 -74 745 -230 28 -8 95 -26 150
-41 55 -14 147 -39 205 -55 131 -35 195 -52 339 -90 63 -17 121 -32 130 -34 9
-2 72 -19 141 -38 69 -19 197 -54 285 -77 88 -23 189 -50 225 -60 123 -34 255
-69 283 -76 15 -3 27 -9 27 -13 0 -3 -19 -73 -41 -156 -22 -82 -49 -184 -60
-225 -48 -182 -83 -310 -100 -370 -10 -36 -20 -76 -23 -90 -3 -14 -15 -59 -26
-100 -25 -88 -42 -150 -76 -280 -14 -52 -36 -135 -49 -185 -30 -109 -102 -375
-156 -580 -22 -82 -46 -172 -54 -200 -12 -45 -106 -395 -125 -470 -5 -16 -22
-82 -40 -145 -17 -63 -33 -122 -34 -130 -2 -8 -46 -170 -97 -360 l-92 -345 1
-120 c0 -143 23 -240 82 -361 172 -346 585 -519 952 -398 208 69 389 231 479
431 16 35 50 139 75 231 66 244 75 275 80 269 3 -3 25 2 50 10 237 81 408 313
451 613 10 69 10 280 1 340 -23 142 -67 267 -125 352 -18 27 -23 43 -17 60 4
13 9 25 9 28 1 3 5 19 9 35 4 17 14 53 22 80 13 49 103 383 169 635 18 69 68
253 110 410 42 157 95 355 117 440 23 85 44 159 48 163 4 5 110 -19 236 -53
126 -34 261 -70 299 -80 161 -42 423 -112 470 -126 28 -8 237 -64 465 -125
228 -61 465 -124 525 -141 61 -16 129 -34 153 -39 24 -5 46 -11 50 -13 4 -2
23 -7 42 -10 19 -3 60 -10 90 -16 62 -12 260 -12 335 0 28 5 68 12 90 15 111
19 307 98 412 167 240 158 418 382 507 638 14 41 57 194 96 340 39 146 75 279
81 296 5 17 12 42 14 55 3 13 16 65 30 114 34 122 137 506 140 525 2 8 4 15 5
15 1 0 3 7 5 15 1 8 55 211 120 450 124 464 121 449 140 555 17 94 12 339 -9
433 -101 461 -429 821 -866 952 -36 10 -101 29 -145 40 -80 22 -217 58 -245
65 -8 2 -157 42 -330 89 -307 82 -462 124 -625 167 -44 12 -118 32 -165 45
-201 54 -655 176 -669 180 -32 7 -302 79 -596 159 -93 25 -177 48 -185 50 -8
1 -60 15 -115 30 -161 43 -193 52 -320 85 -66 17 -151 40 -190 51 -128 36
-430 117 -462 124 -10 2 -52 14 -93 25 -41 12 -91 25 -110 30 -44 11 -134 35
-375 100 -392 106 -715 193 -855 230 -183 48 -308 81 -435 116 -216 58 -293
71 -440 71 -77 0 -160 -3 -185 -7z"/>
<path d="M6178 12395 c-2 -1 -59 -6 -128 -9 -69 -4 -143 -9 -165 -11 -22 -2
-71 -6 -110 -10 -242 -22 -569 -72 -750 -115 -460 -108 -723 -199 -1080 -375
-480 -237 -878 -549 -1185 -928 -50 -62 -99 -121 -107 -132 -9 -10 -58 -83
-110 -161 -163 -250 -293 -519 -388 -809 -50 -152 -110 -391 -121 -481 -3 -23
-7 -53 -9 -65 -23 -117 -26 -387 -6 -494 27 -140 90 -296 161 -402 l28 -41
-44 -59 c-57 -73 -116 -198 -140 -288 -22 -89 -26 -267 -8 -349 17 -73 47
-151 86 -225 l29 -53 -40 -77 c-57 -110 -82 -206 -86 -331 -4 -152 19 -253 92
-396 l36 -70 -25 -40 c-129 -204 -140 -513 -26 -737 32 -65 71 -125 107 -166
l20 -23 -28 -42 c-71 -103 -150 -309 -169 -440 -11 -80 -8 -305 6 -376 51
-261 190 -495 392 -665 127 -106 299 -188 500 -237 45 -11 678 -13 3595 -13
1947 0 3563 4 3590 8 161 25 367 114 495 213 234 180 378 414 430 697 20 111
21 302 1 405 -26 137 -83 282 -153 392 l-36 56 46 59 c54 72 114 195 138 285
19 75 26 230 13 311 -13 80 -43 170 -84 249 l-36 68 30 56 c64 120 91 218 97
347 6 143 -23 268 -92 399 l-36 69 29 53 c71 126 103 257 98 402 -4 132 -16
188 -68 306 -22 51 -95 166 -121 192 -16 17 -16 20 12 60 41 60 86 151 116
233 23 63 31 93 51 190 11 52 13 286 4 365 -5 41 -12 94 -14 117 -9 74 -64
327 -94 423 -40 134 -63 206 -76 235 -7 17 -28 68 -46 115 -82 211 -259 529
-389 701 -19 26 -44 59 -55 74 -11 16 -25 33 -30 39 -6 6 -21 25 -34 41 -90
117 -274 305 -426 436 -458 393 -1022 673 -1690 841 -66 16 -129 32 -140 34
-18 3 -40 8 -145 29 -46 10 -245 44 -285 50 -22 3 -53 7 -70 10 -16 3 -52 7
-80 10 -104 11 -151 16 -175 20 -23 3 -136 13 -260 21 -68 5 -837 13 -842 9z"/>
</g>
</svg>
